<?xml version="1.0" standalone="no"?>
<!DOCTYPE svg PUBLIC "-//W3C//DTD SVG 20010904//EN"
 "http://www.w3.org/TR/2001/REC-SVG-20010904/DTD/svg10.dtd">
<svg version="1.0" xmlns="http://www.w3.org/2000/svg"
 width="1920.000000pt" height="1080.000000pt" viewBox="0 0 1920.000000 1080.000000"
 preserveAspectRatio="xMidYMid meet">
<metadata>
Created by potrace 1.16, written by Peter Selinger 2001-2019
</metadata>
<g transform="translate(0.000000,1080.000000) scale(0.100000,-0.100000)"
fill="#000000" stroke="none">
<path d="M0 7790 c0 -2321 3 -3010 12 -3010 9 0 9 -3 0 -12 -9 -9 -12 -554
-12 -2390 l0 -2378 9600 0 9600 0 0 5400 0 5400 -2427 -1 c-1336 0 -2423 -3
-2416 -5 14 -6 7 -55 -13 -96 -18 -35 -18 -77 0 -97 24 -29 27 -65 6 -79 -17
-10 -21 -8 -35 18 -9 17 -21 30 -28 29 -16 -3 -64 17 -72 30 -3 6 -15 11 -26
11 -16 0 -19 -7 -19 -40 0 -29 4 -40 15 -40 18 0 18 -1 5 -34 -7 -21 -6 -26 5
-26 8 0 15 -4 15 -10 0 -5 -9 -10 -20 -10 -10 0 -24 -9 -30 -20 -13 -24 -33
-26 -50 -5 -10 12 -10 15 4 15 9 0 16 4 16 9 0 5 3 18 6 28 5 17 5 17 -6 1
-12 -19 -45 -24 -54 -9 -11 17 31 42 59 35 23 -6 26 -4 23 12 -2 12 -13 20
-30 22 -16 2 -28 11 -31 24 -5 18 -8 19 -21 8 -9 -7 -16 -24 -16 -37 0 -19 -4
-24 -16 -19 -10 4 -25 -1 -35 -10 -12 -11 -25 -13 -41 -8 -13 4 -26 7 -30 6
-11 -3 -48 31 -48 44 0 6 18 16 40 23 33 10 44 9 63 -3 21 -14 24 -14 41 5 11
13 15 27 10 37 -6 16 -7 15 -11 0 -5 -19 -23 -25 -23 -8 0 6 -9 10 -20 10 -29
0 -25 19 12 52 38 34 95 41 78 9 -5 -11 -10 -34 -10 -52 0 -30 1 -31 23 -16
23 15 26 43 12 100 -6 23 -2 32 21 52 16 14 38 25 48 25 40 0 5 12 -45 15 -41
3 -55 0 -65 -13 -12 -16 -14 -16 -42 1 -26 15 -58 17 -230 17 -218 0 -212 2
-212 -60 0 -16 -4 -32 -10 -35 -5 -3 -10 -1 -10 4 0 12 -10 13 -111 11 -57 -1
-67 1 -75 20 -8 18 -12 19 -26 8 -9 -7 -19 -26 -22 -42 -10 -55 -17 -40 -11
20 5 44 4 64 -5 69 -15 9 -30 -12 -30 -42 0 -12 -9 -27 -20 -33 -12 -6 -25
-23 -31 -37 -6 -15 -15 -23 -23 -20 -8 3 -17 3 -21 -1 -8 -9 -41 -12 -131 -12
-59 0 -73 -3 -79 -17 -6 -15 -9 -12 -19 15 l-12 34 -23 -48 c-13 -26 -32 -55
-41 -64 -17 -17 -19 -16 -30 26 l-13 45 -22 -21 c-29 -27 -34 -26 -51 15 -15
37 -10 130 7 141 17 10 9 24 -14 24 -19 0 -26 -8 -34 -37 l-10 -38 -2 38 -1
37 -131 0 -130 0 6 -22 c12 -45 28 -78 35 -78 10 0 20 -39 11 -44 -4 -3 -19 1
-33 8 -16 9 -31 10 -41 4 -23 -12 -53 6 -61 36 -7 28 8 76 24 76 5 0 10 5 10
10 0 7 -255 10 -745 10 l-745 0 6 -25 c8 -30 -8 -33 -27 -4 -11 16 -28 22 -75
26 -60 5 -61 5 -68 -21 -4 -16 -13 -25 -24 -24 -57 4 -67 -5 -78 -72 -3 -14
-10 -35 -16 -47 -12 -23 -86 -78 -95 -70 -5 5 -43 -29 -43 -38 0 -6 -14 -24
-42 -56 -10 -10 -18 -23 -18 -29 0 -5 -4 -10 -8 -10 -8 0 -35 -81 -37 -112 -1
-9 -7 -24 -15 -33 -8 -9 -14 -32 -14 -51 0 -19 -6 -36 -14 -39 -10 -3 -12 -13
-8 -30 5 -19 2 -25 -11 -26 -16 0 -16 -1 1 -8 14 -5 16 -10 7 -15 -14 -9 -56
-101 -71 -156 -6 -21 -21 -45 -35 -54 -14 -9 -25 -23 -25 -31 0 -8 -4 -15 -9
-15 -5 0 -13 -9 -16 -20 -3 -11 -13 -20 -20 -20 -8 0 -19 -15 -26 -34 -8 -23
-25 -40 -56 -57 l-44 -24 28 -6 c25 -5 26 -7 9 -14 -11 -5 -31 -4 -47 2 -26
10 -29 9 -29 -8 0 -25 -38 -102 -56 -112 -8 -4 -14 -18 -14 -30 0 -12 -20 -58
-45 -101 -24 -43 -54 -98 -65 -122 -12 -24 -26 -44 -31 -44 -4 0 -13 -18 -19
-39 -6 -22 -27 -68 -46 -103 -20 -35 -58 -109 -85 -165 -27 -56 -53 -104 -58
-107 -5 -3 -11 -17 -15 -30 -7 -28 -104 -197 -122 -211 -14 -11 -59 -87 -77
-127 -6 -16 -15 -28 -19 -28 -4 0 -20 -23 -34 -52 -24 -47 -92 -148 -117 -173
-15 -16 45 96 71 133 14 17 21 32 17 32 -5 0 2 8 13 19 12 10 22 26 22 35 0 9
5 16 10 16 6 0 10 6 10 14 0 7 12 31 27 52 29 41 88 150 147 269 19 39 45 86
58 105 21 30 43 71 79 142 5 10 9 24 9 32 0 8 7 16 15 19 13 6 68 112 103 202
8 22 21 49 29 60 7 11 13 28 13 38 0 11 7 33 15 50 22 46 8 121 -23 125 -14 2
-22 -2 -22 -11 0 -8 -7 -17 -15 -21 -8 -3 -15 -10 -15 -16 0 -6 5 -8 10 -5 6
3 10 4 10 1 0 -3 -13 -12 -30 -21 -23 -12 -30 -13 -30 -3 -1 8 -7 5 -15 -6 -8
-11 -15 -14 -15 -8 0 18 -21 10 -50 -18 -22 -21 -25 -22 -28 -7 -3 15 -7 13
-25 -10 -16 -20 -23 -44 -24 -88 -4 -96 -15 -175 -24 -175 -5 0 -9 -7 -9 -15
0 -8 -7 -15 -15 -15 -8 0 -15 -5 -15 -10 0 -6 -11 -19 -24 -31 -17 -14 -22
-27 -18 -46 3 -16 1 -24 -5 -20 -12 8 -79 -54 -88 -82 -3 -12 -11 -19 -16 -16
-5 4 -9 1 -9 -4 0 -6 -11 -21 -25 -33 -14 -12 -25 -32 -25 -44 0 -31 -10 -55
-21 -48 -5 3 -9 -1 -9 -9 0 -7 -15 -31 -32 -51 -18 -21 -55 -77 -83 -125 -27
-47 -71 -117 -97 -154 -27 -37 -48 -72 -48 -77 0 -6 -4 -10 -8 -10 -5 0 -15
-12 -22 -27 -8 -16 -42 -66 -75 -113 -33 -47 -83 -118 -110 -158 -27 -41 -54
-76 -59 -79 -12 -8 -8 -1 89 147 114 174 211 331 226 363 7 15 16 27 21 27 4
0 8 4 8 9 0 6 13 30 30 54 16 25 30 50 30 55 0 6 6 17 13 24 22 23 47 67 47
82 0 8 4 16 8 18 11 5 62 112 62 131 0 10 5 16 11 15 6 -2 19 16 27 40 15 38
15 44 2 53 -11 8 -12 12 -2 16 6 2 12 13 12 24 0 11 7 19 16 19 14 0 14 1 0
16 -23 22 -20 31 15 43 25 9 30 15 26 32 -3 11 -3 18 0 15 3 -3 12 2 20 10 8
8 18 12 22 10 4 -3 15 8 25 25 17 28 17 29 -3 29 -12 0 -21 5 -21 10 0 6 11
10 25 10 18 0 28 7 35 26 13 34 14 34 -17 34 l-28 1 30 16 c17 10 35 16 40 15
18 -3 54 61 66 118 7 30 18 62 24 70 7 8 10 22 7 30 -2 8 -1 12 3 8 10 -10 34
22 35 45 0 9 4 17 9 17 4 0 6 11 3 25 -2 13 -1 33 3 42 13 29 16 55 6 49 -17
-11 -31 21 -41 93 -10 75 -24 111 -40 111 -6 0 -10 7 -10 15 0 8 -7 15 -16 15
-9 0 -18 9 -21 19 -5 20 -52 35 -79 24 -9 -3 -19 -1 -23 4 -3 6 -27 13 -53 17
-40 6 -48 5 -48 -8 0 -10 -9 -16 -25 -16 -30 0 -31 -7 -6 -39 14 -19 17 -31
10 -54 -4 -16 -8 -32 -7 -36 4 -25 -19 -95 -38 -116 -13 -14 -27 -37 -30 -50
-3 -14 -12 -25 -20 -25 -13 0 -19 -29 -16 -70 2 -20 -18 -70 -29 -70 -4 0 -11
-9 -14 -20 -4 -12 -14 -20 -23 -18 -9 1 -33 -5 -52 -15 -19 -9 -47 -15 -62
-13 -20 2 -29 -2 -33 -15 -6 -18 -58 -38 -100 -39 -23 -1 -63 -75 -70 -130
-22 -180 -30 -229 -42 -254 -12 -22 -17 -26 -24 -15 -7 11 -9 11 -9 -3 0 -11
-6 -16 -20 -13 -11 2 -26 -3 -34 -11 -8 -8 -28 -14 -44 -14 -58 0 -62 -5 -62
-90 l0 -78 -45 -4 c-36 -2 -45 0 -45 13 0 18 -29 60 -30 42 0 -7 -5 -13 -12
-13 -7 0 -23 -12 -36 -27 -13 -16 -21 -23 -18 -17 9 17 -12 22 -74 17 -35 -2
-66 -11 -84 -24 -23 -17 -30 -19 -37 -8 -7 11 -9 11 -9 1 0 -13 -39 -8 -50 7
-11 14 -61 42 -68 38 -13 -8 -67 29 -71 49 -2 10 -13 27 -24 36 -14 13 -16 18
-6 18 10 1 8 4 -4 11 -21 13 -24 11 -29 -16 -3 -20 -21 -45 -33 -45 -20 0 -34
-30 -26 -58 13 -44 -1 -57 -28 -26 -22 26 -23 27 -3 22 18 -5 19 -3 13 16 -5
11 -6 27 -4 34 3 6 -1 12 -8 12 -7 0 -4 9 9 23 25 27 29 57 7 57 -8 0 -15 8
-15 18 -1 16 -1 16 -11 0 -11 -19 -39 -25 -39 -8 0 6 -5 10 -11 10 -5 0 -8 -4
-4 -9 3 -5 1 -12 -4 -16 -6 -3 -6 -17 1 -36 14 -41 -11 -69 -62 -69 -30 0 -41
6 -55 26 l-17 27 -27 -31 c-20 -23 -30 -28 -46 -22 -11 5 -15 9 -9 9 7 1 14
10 17 21 9 33 -55 45 -78 13 -9 -11 -16 -12 -40 -3 -17 6 -31 11 -33 10 -1 0
-14 12 -27 28 -14 16 -38 32 -55 35 -18 4 -30 13 -30 22 0 18 16 20 23 3 3 -7
6 6 6 30 1 31 -3 42 -14 42 -8 0 -15 9 -15 20 0 11 -20 41 -45 66 -25 25 -43
49 -40 55 4 5 2 9 -3 9 -9 0 -42 96 -42 124 0 9 7 19 15 22 20 8 19 30 -1 38
-32 12 -56 5 -86 -26 -17 -18 -32 -28 -34 -22 -12 31 -33 46 -68 48 -20 2 -43
9 -49 16 -9 10 -9 11 1 6 13 -8 16 3 4 19 -12 17 -60 45 -78 45 -11 0 -14 5
-10 16 3 9 6 21 6 27 0 8 3 8 11 0 16 -16 59 12 59 38 0 10 5 21 10 24 20 12
9 25 -20 25 -16 0 -30 1 -30 3 0 1 8 19 19 40 l19 37 27 -21 c19 -16 29 -19
37 -11 8 8 8 15 -1 26 -10 11 -9 19 1 35 7 12 16 21 20 21 14 0 19 -21 8 -34
-11 -14 -4 -66 9 -66 4 0 12 5 19 12 9 9 13 7 18 -6 4 -10 3 -21 -2 -25 -13
-9 -11 -35 4 -44 6 -4 12 -15 12 -22 0 -10 10 -15 28 -15 36 0 43 7 31 31 -5
10 -13 28 -19 39 -15 29 -12 32 14 15 21 -14 25 -14 39 -1 18 18 27 11 27 -22
0 -14 3 -22 7 -19 3 4 13 1 21 -6 19 -15 93 -17 109 -2 9 9 7 16 -9 29 -16 14
-17 20 -7 32 7 9 21 13 31 11 23 -6 24 9 1 17 -9 4 -21 2 -27 -4 -5 -5 -23
-10 -39 -10 -20 0 -30 -6 -34 -20 -9 -34 -23 -22 -23 20 0 36 -2 40 -26 40
-14 0 -23 -4 -20 -9 3 -5 -1 -12 -10 -15 -25 -9 -26 -8 -19 22 5 24 2 30 -22
41 -26 13 -27 14 -8 22 30 11 35 11 35 -6 0 -18 1 -18 35 -5 14 5 24 14 20 19
-10 18 11 20 42 4 29 -13 34 -13 55 1 29 20 48 20 48 0 0 -11 6 -15 18 -12 10
3 31 -5 47 -18 25 -20 27 -25 15 -39 -12 -14 -10 -20 14 -41 14 -14 39 -26 54
-27 26 -2 27 0 28 43 1 25 -4 52 -11 60 -16 19 -30 130 -17 130 6 0 15 14 21
30 5 17 17 30 25 30 8 0 23 11 34 25 17 21 18 30 9 70 -6 25 -14 45 -18 45 -4
0 -10 11 -13 24 -3 13 -11 24 -18 23 -45 -1 -58 4 -58 24 0 18 -4 20 -27 15
-16 -3 -45 -8 -65 -10 -43 -5 -61 -14 -53 -27 4 -5 2 -9 -4 -9 -5 0 -11 10
-13 23 -2 18 -10 23 -41 25 -32 3 -39 0 -44 -17 -7 -28 -52 -40 -65 -17 -5 9
-16 16 -24 16 -23 0 -13 -33 13 -45 28 -12 23 -37 -14 -76 -18 -20 -21 -29
-12 -34 9 -6 8 -11 -6 -21 -11 -8 -15 -19 -11 -30 4 -10 1 -21 -5 -25 -17 -10
28 -52 50 -46 10 2 23 -4 30 -14 6 -11 18 -19 26 -19 8 0 15 -5 15 -11 0 -6
-7 -8 -16 -5 -9 3 -22 6 -29 6 -7 0 -26 11 -42 23 -15 13 -40 27 -55 31 -18 4
-30 15 -34 31 -5 20 -11 23 -42 21 -19 -1 -37 -7 -39 -13 -5 -13 -45 -5 -55
11 -4 7 -14 4 -26 -7 -11 -11 -39 -19 -66 -21 -46 -2 -66 -15 -66 -43 0 -7 11
-13 25 -13 22 0 30 -9 26 -32 0 -4 8 -12 19 -18 11 -6 31 -22 44 -35 21 -21
24 -30 16 -51 -9 -22 -14 -24 -45 -18 -23 4 -41 2 -50 -6 -13 -10 -19 -10 -34
4 -10 9 -22 16 -27 15 -21 -4 -34 2 -32 13 2 7 -4 13 -12 13 -8 0 -14 -5 -13
-11 3 -16 -97 -24 -118 -11 -13 8 -25 8 -42 0 -24 -11 -37 -8 -37 9 0 4 8 8
19 8 10 0 21 8 25 18 3 9 9 23 12 30 3 7 -1 12 -10 12 -9 0 -19 -7 -22 -15 -4
-9 -19 -15 -40 -15 -29 0 -34 3 -34 24 0 13 7 27 16 30 10 4 14 14 11 26 -3
11 1 23 8 28 8 4 14 11 14 17 0 5 4 11 10 13 6 2 11 -1 11 -6 0 -5 11 -13 25
-16 14 -4 25 -11 25 -16 0 -6 5 -10 10 -10 6 0 10 7 10 15 0 8 4 15 9 15 5 0
17 3 27 7 13 5 15 3 9 -8 -6 -11 -5 -12 6 -1 11 10 11 16 1 32 -10 17 -10 21
2 26 24 9 39 -5 25 -22 -18 -22 -2 -29 21 -9 41 37 15 58 -65 53 -31 -2 -40 1
-43 15 -3 14 4 17 47 17 47 0 51 2 57 28 11 51 14 58 23 44 4 -7 15 -10 24 -6
10 3 17 1 17 -5 0 -6 14 -11 30 -11 33 0 38 11 15 30 -18 15 -10 32 13 29 34
-3 43 1 40 19 -2 11 0 20 5 20 19 5 27 1 27 -13 0 -8 4 -15 8 -15 20 0 72 32
72 45 0 7 9 15 20 18 13 3 18 10 14 21 -7 17 11 22 21 6 9 -15 51 -12 65 5 9
10 17 12 23 6 15 -15 59 18 55 43 -1 12 1 27 5 34 5 7 3 12 -3 12 -6 0 -18
-16 -26 -35 -8 -20 -19 -33 -24 -30 -6 4 -4 18 5 35 19 36 19 44 1 37 -9 -4
-17 2 -21 14 -10 30 -37 25 -29 -6 5 -19 2 -25 -10 -25 -9 0 -16 4 -16 9 0 6
-16 7 -35 4 -28 -4 -35 -2 -35 11 0 9 5 16 10 16 6 0 10 9 10 20 0 29 24 35
54 15 22 -15 26 -15 26 -2 0 8 -9 17 -20 20 -32 8 -23 23 15 24 19 1 35 -4 35
-9 0 -7 4 -7 13 0 6 5 35 12 62 13 46 4 50 2 53 -19 2 -13 -1 -29 -7 -36 -9
-10 -6 -15 10 -19 29 -8 19 -30 -18 -41 -33 -10 -51 -51 -32 -71 5 -5 9 -17 9
-27 0 -10 5 -18 11 -18 19 0 50 21 44 30 -3 5 10 6 30 3 20 -3 41 -1 49 6 11
9 17 8 29 -4 20 -19 27 -19 27 0 0 9 -7 18 -15 21 -8 4 -15 12 -15 19 0 16 31
28 53 20 17 -7 77 20 77 35 0 5 -10 14 -21 21 -17 9 -19 13 -8 20 11 7 11 9
-2 9 -9 0 -24 -9 -33 -19 -14 -16 -22 -17 -45 -8 -36 13 -31 41 10 59 19 9 29
20 29 35 0 12 9 28 21 36 29 21 8 30 -51 22 l-50 -7 0 39 c0 55 -12 69 -47 55
-57 -21 -95 -23 -109 -5 -18 24 -17 40 5 71 10 15 19 44 19 65 l1 38 -247 -5
c-257 -4 -282 -6 -282 -17 0 -13 -63 -7 -92 7 -43 22 -78 18 -79 -8 l0 -23
-11 23 c-10 20 -18 22 -77 21 -52 0 -61 -2 -43 -10 13 -5 28 -7 32 -4 5 3 12
0 16 -6 8 -14 -30 -49 -49 -45 -32 7 -87 38 -96 53 -5 10 -12 15 -16 11 -10
-10 11 -42 37 -56 27 -15 34 -50 12 -59 -30 -11 -64 7 -85 48 -11 23 -18 47
-15 55 3 8 -1 14 -9 14 -17 0 -19 -18 -5 -40 12 -19 -6 -40 -34 -40 -12 0 -30
-6 -41 -14 -11 -7 -35 -17 -54 -21 -18 -4 -42 -14 -52 -24 -11 -9 -36 -21 -57
-27 -26 -8 -38 -17 -40 -32 -3 -17 -10 -22 -35 -22 -38 0 -98 -20 -122 -40
-15 -12 -19 -12 -30 3 -13 18 -65 24 -65 6 0 -5 -4 -8 -10 -4 -5 3 -24 -1 -43
-9 -27 -11 -36 -21 -41 -49 -7 -38 1 -70 15 -61 18 11 9 -9 -13 -28 -22 -18
-22 -18 -39 19 -10 21 -18 43 -19 49 0 23 -27 36 -48 23 -11 -7 -28 -9 -38 -5
-15 6 -16 9 -4 16 8 5 12 12 9 15 -9 8 -69 -47 -69 -64 0 -11 -6 -8 -23 8 -21
19 -26 20 -36 7 -17 -20 -37 -10 -56 27 -17 34 -13 46 9 28 16 -13 36 -7 36
10 0 6 7 18 16 26 11 11 14 27 11 50 -4 22 -1 38 10 49 14 14 14 17 -6 30 -11
8 -21 20 -21 26 0 7 5 6 14 -1 12 -10 16 -8 21 10 5 14 2 25 -6 30 -11 8 -11
12 4 23 28 22 20 26 -50 26 -61 0 -66 -2 -43 -13 33 -17 38 -44 8 -49 -15 -2
-24 -11 -26 -26 -3 -17 -8 -21 -23 -17 -15 5 -19 1 -19 -19 0 -14 -4 -26 -10
-26 -5 0 -10 10 -10 21 0 21 -1 21 -26 4 l-27 -17 7 28 c4 16 12 31 17 32 5 2
7 8 3 13 -3 5 1 9 10 9 8 0 16 -5 18 -12 5 -14 38 -4 38 12 0 5 -9 10 -20 10
-11 0 -20 5 -20 10 0 6 11 10 25 10 14 0 25 5 25 10 0 6 -6 10 -14 10 -8 0
-21 3 -30 6 -10 4 -16 1 -16 -9 0 -14 -4 -15 -41 -2 -31 11 -46 12 -62 3 -16
-8 -22 -8 -25 1 -3 8 -107 11 -385 10 -210 0 -376 -3 -370 -6 22 -8 14 -23
-13 -23 -20 0 -25 4 -20 16 5 14 4 15 -9 4 -10 -8 -19 -9 -27 -2 -7 5 -50 10
-95 11 l-82 2 -3 -27 c-3 -27 -32 -42 -44 -23 -10 16 -23 10 -41 -21 -25 -44
-35 -37 -27 20 l7 50 -132 0 c-91 0 -130 -3 -126 -11 4 -6 17 -14 28 -18 14
-5 22 -17 22 -32 0 -16 7 -25 20 -28 11 -2 26 -12 33 -22 7 -11 25 -19 39 -19
22 0 24 3 18 27 -6 27 -6 27 14 9 12 -11 21 -24 21 -29 0 -6 8 -19 17 -29 15
-17 15 -19 -3 -32 -22 -17 -34 -12 -34 15 0 15 -7 19 -37 20 -21 1 -42 1 -46
0 -4 -1 -15 5 -23 14 -9 8 -25 15 -36 15 -17 0 -18 2 -8 15 10 12 9 15 -5 15
-14 0 -15 3 -5 15 7 9 10 18 7 21 -11 11 -25 -6 -32 -36 -7 -32 -20 -37 -47
-16 -24 18 -23 24 4 28 36 5 34 35 -4 58 -31 18 -50 20 -295 19 -145 0 -263
-2 -263 -5 0 -2 9 -8 20 -12 13 -5 17 -11 11 -21 -7 -11 -14 -9 -34 12 -29 32
-37 34 -37 7 0 -11 11 -27 24 -36 15 -9 23 -21 19 -31 -3 -8 -8 -11 -12 -5 -3
6 -19 14 -34 17 -16 4 -31 14 -34 21 -3 8 -11 14 -18 14 -17 0 -27 27 -12 34
7 2 -651 5 -1461 5 l-1472 1 0 -3010z m12606 2934 c4 -14 2 -30 -5 -37 -6 -6
-11 -26 -11 -44 0 -28 4 -34 33 -41 27 -7 32 -13 30 -35 -2 -30 0 -32 26 -15
25 15 51 4 51 -22 0 -12 -11 -36 -25 -54 -14 -18 -25 -36 -25 -39 0 -4 11 -7
25 -7 14 0 25 -4 25 -9 0 -5 9 -13 20 -16 11 -3 20 -11 20 -16 0 -6 11 -25 25
-43 46 -61 18 -78 -41 -26 -19 16 -53 34 -76 41 -36 9 -40 13 -26 23 14 10 11
13 -19 23 -33 10 -34 9 -29 -11 4 -18 -1 -24 -28 -34 -18 -7 -41 -21 -51 -32
-22 -24 -48 -26 -65 -5 -16 20 -5 32 14 16 12 -10 17 -8 25 8 6 11 11 26 11
34 0 8 7 20 15 27 8 7 15 19 15 26 0 12 -6 11 -32 -2 -18 -9 -39 -25 -46 -35
-6 -9 -35 -25 -62 -34 -42 -14 -50 -21 -50 -41 0 -13 -5 -24 -10 -24 -16 0
-26 33 -12 38 32 10 -7 87 -39 79 -11 -3 -21 -2 -24 3 -2 4 -23 10 -45 14 -47
7 -52 26 -13 47 20 11 27 11 30 2 10 -28 21 -11 16 22 -4 24 -1 41 10 53 8 9
17 26 19 37 2 12 11 20 25 20 11 1 29 7 38 15 14 12 19 12 22 3 3 -7 12 -13
21 -13 10 0 23 -9 29 -20 13 -20 88 -48 100 -36 4 4 2 16 -5 27 -16 25 -8 39
22 39 19 0 25 7 29 33 2 17 1 39 -4 48 -5 10 -3 21 3 27 19 19 37 14 44 -14z
m-8426 -11 c0 -10 -6 -12 -20 -8 -25 8 -25 -3 -1 -32 24 -28 34 -29 26 -3 -5
16 -2 20 15 20 16 0 20 -4 15 -19 -5 -16 -2 -18 16 -14 15 4 20 3 15 -5 -4 -7
-21 -12 -38 -12 -26 0 -29 -2 -18 -15 7 -8 16 -13 20 -10 5 3 11 -1 13 -7 4
-10 8 -10 16 2 8 12 12 9 20 -13 14 -37 14 -42 -4 -27 -8 7 -21 10 -30 7 -8
-4 -17 -2 -21 4 -3 6 -13 8 -22 4 -8 -3 -19 0 -24 7 -6 10 -8 8 -8 -4 0 -10
-4 -18 -10 -18 -5 0 -10 4 -10 9 0 5 -22 20 -50 32 -45 20 -53 29 -49 57 1 4
6 6 12 4 6 -2 24 -4 39 -4 20 -1 28 -6 28 -18 0 -10 6 -20 14 -23 35 -14 35
36 1 59 -37 24 -31 39 15 40 29 1 40 -3 40 -13z m6740 -77 c0 -25 -60 -84 -79
-78 -6 2 -11 -7 -11 -21 0 -23 -4 -25 -48 -25 -43 0 -50 4 -65 30 -24 43 -22
57 10 55 22 -2 29 4 38 29 21 63 67 82 123 51 21 -13 32 -27 32 -41z m-4840
-107 c0 -5 -10 -9 -21 -9 -18 0 -19 -2 -9 -15 9 -11 9 -15 1 -15 -7 0 -9 -5
-4 -12 4 -7 6 -21 4 -31 -2 -16 0 -17 19 -7 16 8 25 9 35 0 11 -9 16 -7 25 9
8 15 21 21 45 21 38 0 42 -10 25 -56 -10 -24 -13 -26 -52 -20 -35 6 -43 4 -57
-16 -9 -13 -18 -34 -21 -48 -4 -18 -15 -28 -38 -35 -29 -8 -32 -12 -26 -35 11
-39 10 -63 -2 -67 -6 -2 -14 9 -17 24 -8 42 -55 44 -85 4 -22 -31 -50 -33 -73
-5 -6 8 -18 14 -26 14 -12 0 -14 -7 -10 -30 4 -16 2 -32 -3 -35 -5 -3 -10 9
-12 27 -3 36 -23 48 -31 18 -3 -12 -13 -20 -25 -20 -11 0 -22 -5 -24 -11 -2
-7 -13 -9 -25 -5 -32 10 -15 49 23 56 35 6 47 40 15 40 -12 0 -21 -6 -21 -13
0 -11 -30 -28 -76 -41 -11 -3 -29 0 -40 9 -22 16 -64 20 -64 5 0 -5 5 -10 10
-10 6 0 10 -13 10 -29 0 -16 5 -31 12 -33 6 -2 9 -12 5 -20 -7 -20 -77 -42
-90 -29 -13 13 1 31 25 31 17 0 19 2 7 16 -7 9 -22 14 -36 11 -13 -2 -28 2
-34 9 -6 8 -27 14 -45 14 -28 0 -36 5 -44 26 -13 34 -14 34 18 34 15 0 35 9
45 20 13 16 29 20 74 20 86 0 101 6 95 38 -5 23 -3 25 10 14 13 -10 16 -9 21
10 l6 21 19 -23 c13 -16 32 -24 69 -27 49 -5 51 -4 64 26 10 21 21 31 36 31
13 0 23 5 23 10 0 6 7 10 15 10 9 0 15 9 15 23 0 13 7 32 15 43 13 17 14 17
15 2 0 -20 13 -23 40 -8 13 7 21 6 30 -5 7 -8 18 -15 26 -15 7 0 17 -8 23 -17
8 -14 12 -15 22 -6 14 14 16 54 6 95 -6 24 -4 27 20 30 32 4 43 1 43 -13z
m5017 -31 c13 -12 23 -30 23 -40 0 -10 7 -21 15 -24 24 -10 17 -31 -12 -39
-44 -11 -52 -22 -46 -65 5 -32 2 -41 -12 -46 -12 -5 -24 0 -35 13 -9 11 -34
24 -56 27 -21 3 -55 9 -74 12 l-35 6 3 49 c2 27 5 49 7 49 17 0 35 -16 35 -31
0 -10 5 -19 10 -19 6 0 10 7 10 14 0 18 43 66 58 66 7 0 19 11 28 25 20 31 50
32 81 3z m-4193 -43 c3 -8 12 -15 21 -15 8 0 15 -5 15 -11 0 -6 7 -9 15 -5 20
7 19 -1 -2 -23 -23 -23 -50 -34 -92 -36 -19 -1 -37 -9 -43 -18 -5 -10 -16 -17
-24 -17 -8 0 -13 4 -10 9 3 5 -5 11 -19 13 -30 6 -34 -7 -5 -15 17 -4 19 -11
14 -32 -3 -14 -2 -25 2 -23 5 1 19 -3 31 -10 14 -8 24 -9 28 -2 9 15 35 12 35
-4 0 -25 -29 -41 -51 -28 -15 10 -22 8 -38 -10 -19 -20 -21 -20 -45 -4 -35 22
-45 20 -56 -10 -7 -18 -15 -24 -26 -20 -9 3 -22 6 -31 6 -9 0 -13 6 -9 15 4
13 2 13 -14 5 -15 -8 -20 -6 -25 10 -7 22 -34 27 -52 9 -15 -15 -33 -3 -33 22
0 11 -7 22 -15 25 -18 7 -20 60 -3 70 7 4 18 -2 26 -14 8 -12 20 -22 26 -22 7
0 22 -11 34 -24 17 -20 26 -23 49 -17 15 4 33 18 39 30 7 14 14 19 18 12 14
-22 25 -10 14 14 -13 28 -19 30 -36 13 -9 -9 -15 -9 -24 0 -7 7 -22 12 -35 12
-13 0 -23 6 -23 14 0 8 -7 16 -15 20 -8 3 -15 10 -15 15 0 19 46 22 91 7 42
-15 45 -15 57 4 14 20 13 20 73 -11 23 -11 25 -9 50 34 7 12 17 16 30 12 11
-4 19 -2 19 4 0 17 47 13 54 -4z m4947 -86 c16 -11 29 -28 29 -38 0 -10 11
-23 25 -29 34 -16 32 -44 -5 -60 -25 -12 -34 -11 -61 2 -39 19 -59 20 -59 3 0
-28 -50 -86 -77 -89 -23 -2 -29 -8 -31 -35 -4 -37 3 -41 30 -16 16 15 21 15
28 3 15 -24 58 5 52 36 -3 17 0 24 11 24 8 0 20 7 27 15 11 13 14 13 26 -2 13
-17 13 -17 14 0 0 18 15 23 25 7 4 -6 16 -4 31 6 23 16 24 15 24 -7 l0 -24 20
25 c11 14 20 19 20 13 0 -7 7 -13 15 -13 8 0 15 -7 15 -15 0 -29 19 -14 26 20
7 38 15 43 34 20 7 -8 19 -15 26 -15 17 0 17 -2 3 -34 -11 -24 -49 -43 -49
-24 0 5 -5 6 -12 2 -9 -6 -9 -9 0 -12 18 -6 14 -43 -5 -58 -24 -18 -33 -17
-33 1 0 19 -34 19 -50 0 -7 -8 -10 -21 -7 -29 7 -17 -32 -29 -49 -15 -8 7 -14
7 -19 -1 -9 -14 -58 -12 -80 4 -17 13 -16 14 19 31 36 17 37 18 14 29 -18 10
-30 9 -55 -1 -18 -7 -33 -10 -33 -6 0 4 -5 2 -11 -4 -6 -6 -26 -9 -44 -6 -19
3 -35 0 -39 -6 -4 -6 -16 -11 -26 -11 -22 0 -53 28 -45 40 3 5 1 11 -5 15 -15
10 -12 35 5 35 8 0 15 5 15 10 0 6 15 10 34 10 40 0 66 8 66 21 0 5 -10 9 -23
9 -13 0 -33 9 -45 20 -22 21 -29 40 -14 40 5 0 14 11 20 25 15 33 40 32 49 -2
l6 -28 8 28 c4 16 6 34 3 41 -3 7 6 21 20 30 15 9 26 24 26 33 0 13 7 14 41 9
23 -4 55 -16 70 -27z m-441 -116 c17 -14 30 -32 30 -40 0 -7 11 -13 25 -13 15
0 29 -8 36 -22 6 -13 21 -31 32 -40 18 -14 22 -28 23 -89 1 -54 6 -75 18 -84
22 -16 20 -52 -3 -64 -14 -8 -22 -7 -30 3 -7 9 -8 17 -2 20 5 3 7 15 4 26 -4
15 -9 18 -18 10 -11 -9 -12 -7 -8 10 4 16 0 23 -16 27 -11 3 -21 9 -21 14 0 5
-4 9 -10 9 -5 0 -10 -7 -10 -16 0 -13 -7 -15 -36 -11 -45 8 -63 0 -75 -29 -6
-18 -16 -24 -38 -24 -36 0 -60 -24 -37 -37 13 -7 9 -12 -19 -25 -19 -8 -35
-11 -35 -6 0 5 7 11 15 14 21 8 19 26 -2 22 -9 -2 -20 -14 -24 -28 -5 -21 -7
-23 -14 -8 -8 21 43 75 81 84 13 3 21 10 18 15 -3 5 -10 7 -15 4 -5 -4 -9 -2
-9 4 0 5 4 11 9 13 4 2 11 14 15 28 6 21 5 23 -6 10 -15 -17 -65 -15 -87 3
-10 9 -17 7 -30 -8 -19 -22 -55 -45 -71 -45 -5 0 -10 14 -10 30 0 25 4 30 24
30 18 0 25 6 28 23 2 17 11 23 36 25 24 2 32 8 32 22 0 11 9 24 20 30 11 6 18
15 15 21 -8 12 34 48 56 49 9 0 27 16 40 35 13 19 27 35 32 35 4 0 21 -12 37
-27z m-5046 -108 c-4 -11 1 -15 17 -15 13 0 37 -7 53 -15 15 -8 38 -15 51 -15
36 0 85 -29 85 -51 0 -21 -71 -71 -105 -73 -14 -1 -19 -7 -18 -24 2 -13 -3
-22 -10 -22 -13 0 -17 -11 -18 -52 0 -23 -25 -23 -37 -2 -6 11 -17 15 -31 11
-43 -11 -35 26 17 81 15 16 36 33 47 37 17 7 15 9 -15 14 -23 4 -38 14 -45 28
-5 12 -27 30 -49 40 -41 18 -59 43 -33 43 8 0 20 7 27 15 7 8 25 15 41 15 21
0 27 -4 23 -15z m7622 -29 c16 -13 17 -18 7 -35 -7 -11 -10 -27 -7 -35 5 -14
8 -14 21 0 13 13 18 13 30 2 21 -22 2 -96 -35 -137 -18 -18 -32 -39 -32 -46 0
-22 -41 -45 -67 -39 -17 5 -28 1 -38 -12 -7 -11 -17 -16 -21 -12 -4 4 -1 14 6
23 11 13 10 14 -3 10 -30 -12 -29 17 3 57 18 22 29 43 24 47 -5 3 -9 24 -9 45
0 34 4 41 27 48 31 11 43 35 27 54 -9 11 -8 18 1 29 16 19 41 19 66 1z m-8588
-84 c2 -14 12 -22 30 -24 19 -2 28 -10 30 -25 2 -13 9 -24 15 -24 7 -1 18 -2
26 -3 30 -2 20 -22 -17 -33 -44 -14 -78 -8 -86 14 -8 19 -26 7 -26 -18 0 -23
-13 -24 -34 -3 -22 21 -20 38 9 84 14 22 25 45 25 51 0 19 25 3 28 -19z m5322
-20 c12 -12 43 -33 69 -47 55 -27 61 -38 61 -106 0 -39 3 -47 15 -43 8 4 15 1
15 -5 0 -6 -4 -11 -10 -11 -5 0 -10 -4 -10 -10 0 -5 13 -7 29 -4 34 7 46 -7
31 -36 -12 -23 -50 -27 -50 -5 0 8 -6 15 -13 15 -19 0 -147 -41 -147 -47 0 -2
4 -12 9 -22 5 -9 6 -23 1 -30 -9 -15 -70 -24 -70 -10 0 5 -16 15 -35 23 -28
12 -42 13 -63 4 -15 -6 -33 -10 -39 -9 -7 1 -13 -4 -13 -11 0 -8 -10 -22 -21
-32 -24 -20 -83 -15 -92 7 -6 15 16 47 32 47 6 0 11 9 11 19 0 28 -50 38 -68
14 -10 -12 -13 -13 -10 -3 3 9 -9 24 -29 38 -18 12 -33 28 -33 34 0 6 6 5 16
-3 15 -12 16 -11 10 9 -7 21 -5 23 16 22 12 -1 25 -2 28 -1 3 1 35 3 72 5 72
4 82 -1 93 -45 5 -20 12 -25 39 -25 27 0 36 6 49 31 8 16 17 40 20 52 l5 23
-25 -20 c-37 -29 -56 -25 -100 19 -36 36 -43 39 -81 35 -33 -4 -42 -2 -42 11
0 10 10 15 30 15 17 0 30 5 30 11 0 7 12 9 33 5 43 -7 65 11 69 59 3 45 21 54
100 51 35 -1 53 -8 68 -24z m-5442 -63 c9 -14 9 -25 2 -39 -12 -23 -4 -47 19
-55 10 -3 23 -17 29 -30 11 -23 9 -27 -12 -36 -28 -13 -42 -49 -20 -49 8 0 14
5 14 10 0 6 7 10 15 10 8 0 15 5 15 10 0 6 11 10 25 10 14 0 25 -4 25 -10 0
-5 -11 -17 -25 -26 -14 -9 -25 -21 -25 -26 0 -13 62 1 73 16 5 7 7 6 5 -4 -1
-8 10 -28 25 -43 32 -31 31 -47 -2 -63 -14 -7 -19 -14 -12 -18 17 -11 13 -26
-8 -26 -10 0 -22 7 -25 16 -9 23 -62 15 -58 -9 3 -16 -1 -18 -30 -12 -18 4
-34 11 -36 16 -2 5 -10 9 -18 9 -8 0 -20 11 -26 25 -13 29 -29 31 -66 8 -36
-24 -52 -39 -52 -52 0 -15 -6 -14 -36 6 -19 12 -24 22 -20 40 5 17 0 29 -19
45 -14 12 -25 27 -25 33 0 8 -18 11 -57 8 -55 -4 -79 -4 -130 -3 -27 0 -41 19
-22 30 10 7 10 11 -1 25 -12 14 -10 19 16 40 16 14 35 24 42 25 7 0 20 6 27
13 36 31 45 37 64 37 11 0 21 6 24 13 3 9 9 9 28 -2 21 -12 24 -12 37 8 8 11
19 21 25 21 5 0 15 6 21 14 6 8 26 17 43 21 28 6 38 2 63 -23 28 -29 54 -26
31 2 -6 7 -9 20 -6 28 8 20 48 12 63 -13z m328 -45 c-3 -8 1 -14 10 -14 8 0
19 -10 23 -22 7 -18 10 -20 15 -8 5 12 18 14 64 10 46 -4 58 -9 60 -24 2 -11
14 -27 25 -37 18 -14 19 -19 8 -33 -17 -21 -31 -20 -46 1 -12 16 -15 16 -50
-2 -21 -11 -40 -27 -42 -35 -5 -20 -51 -41 -59 -28 -10 16 -77 42 -104 39 -23
-1 -24 0 -7 12 21 17 22 40 3 56 -11 10 -16 8 -24 -6 -12 -21 -21 -15 -24 18
-3 20 2 24 30 27 17 2 32 9 32 15 0 7 6 22 14 33 11 16 23 20 46 16 21 -3 30
-9 26 -18z m830 -108 c3 -8 16 -17 30 -20 13 -4 24 -12 24 -19 0 -7 12 -14 27
-15 31 -2 57 -22 29 -22 -26 0 -16 -34 12 -38 12 -2 22 -8 22 -13 0 -6 -5 -7
-11 -3 -9 5 -10 -1 -5 -20 8 -33 -1 -33 -30 1 l-23 27 -21 -27 c-28 -35 -38
-34 -42 5 -2 17 -9 33 -16 36 -7 2 -10 -2 -6 -12 7 -19 -12 -21 -23 -2 -12 20
-51 38 -58 26 -6 -10 -45 -15 -45 -6 0 21 17 36 39 36 39 0 56 14 36 30 -21
17 -19 30 4 30 11 0 23 5 26 10 9 14 25 12 31 -4z m-1406 -191 c0 -24 6 -37
20 -45 24 -13 26 -30 5 -30 -8 0 -15 -4 -15 -10 0 -5 6 -10 14 -10 8 0 18 5
21 10 12 19 25 10 25 -16 l0 -26 29 24 c17 13 28 28 26 34 -4 14 22 54 35 54
5 0 10 -10 12 -22 2 -13 9 -22 17 -20 7 1 11 -3 9 -10 -3 -7 -17 -14 -31 -16
-23 -3 -27 -8 -27 -37 0 -30 -23 -55 -38 -40 -3 2 3 7 12 11 24 9 19 24 -8 24
-19 0 -23 -4 -19 -20 3 -11 0 -20 -6 -20 -6 0 -11 10 -11 21 0 17 -5 20 -20
16 -12 -3 -33 1 -48 9 -31 16 -52 18 -52 5 0 -23 -33 -18 -60 8 -26 25 -28 30
-15 41 8 7 15 21 15 31 0 11 5 19 10 19 6 0 15 11 20 25 8 20 16 25 45 25 33
0 35 -2 35 -35z m-893 -176 c-1 -31 -5 -38 -18 -34 -13 5 -15 0 -10 -32 5 -30
11 -37 25 -35 14 3 17 -1 13 -12 -4 -9 -2 -16 4 -16 6 0 7 -4 4 -10 -3 -5 -17
-10 -31 -10 -14 0 -23 4 -20 9 3 5 0 26 -8 47 l-13 38 -18 -28 -18 -28 -12 23
c-7 12 -10 31 -7 43 5 18 3 19 -10 9 -17 -14 -29 -8 -22 12 3 7 1 16 -5 19
-15 10 -2 36 18 36 9 0 22 -5 28 -11 8 -8 14 -7 24 3 7 8 27 15 45 15 32 1 33
0 31 -38z m8477 -243 c18 -16 26 -34 26 -58 0 -40 -28 -72 -54 -62 -9 3 -16 1
-16 -5 0 -6 -7 -11 -15 -11 -8 0 -15 -7 -15 -16 0 -11 -6 -15 -20 -11 -12 3
-24 -1 -29 -11 -8 -14 -11 -12 -16 11 -4 15 -12 27 -19 26 -25 -3 -46 1 -46
10 0 4 11 6 24 4 33 -7 49 38 29 79 -16 32 -10 48 17 48 10 0 22 5 25 10 12
20 83 11 109 -14z m-2689 -248 c-10 -31 -214 -410 -285 -528 -156 -261 -364
-582 -498 -769 l-82 -114 0 -367 0 -368 -42 -3 c-24 -2 -109 -3 -190 -1 l-148
3 0 180 0 179 -235 0 -235 0 0 -180 0 -180 -190 0 -190 0 0 450 0 450 190 0
190 0 0 -180 0 -180 236 0 236 0 -2 88 c-1 48 -2 129 -1 180 l1 92 190 0 190
0 0 -67 0 -67 51 69 c193 266 509 774 684 1100 26 50 64 119 83 155 44 83 42
80 48 80 3 0 2 -10 -1 -22z m-2671 -4 c7 -18 -13 -38 -54 -55 l-24 -10 24 -13
c20 -10 26 -9 28 1 2 7 7 13 12 13 5 0 7 -7 4 -15 -5 -11 1 -15 20 -15 18 0
24 -4 20 -15 -4 -10 0 -15 15 -15 23 0 24 -3 15 -37 -4 -13 -14 -23 -23 -23
-12 0 -17 8 -17 23 1 32 -54 37 -84 7 -11 -11 -25 -18 -30 -15 -6 4 -10 1 -10
-4 0 -6 -7 -11 -15 -11 -8 0 -15 2 -15 4 0 2 -3 12 -7 22 -4 11 -3 15 4 11 6
-4 16 0 23 7 9 12 7 17 -10 26 -23 12 -22 35 1 35 9 0 15 13 17 33 3 26 7 32
19 28 10 -4 21 2 30 14 17 24 48 26 57 4z m-267 -29 c8 -8 19 -12 25 -9 7 5 9
0 6 -12 -3 -11 1 -25 9 -32 20 -19 16 -32 -11 -32 -21 0 -25 -5 -24 -30 1 -40
-13 -55 -40 -41 -27 14 -32 14 -32 -4 0 -8 5 -15 10 -15 6 0 10 -6 10 -14 0
-17 -70 -27 -88 -13 -9 7 -12 22 -8 39 4 20 1 30 -8 34 -8 3 -17 11 -19 18 -4
9 3 11 21 8 15 -3 29 -8 32 -12 10 -16 45 -15 45 0 0 10 -12 16 -32 18 -19 2
-37 11 -43 22 -9 17 -5 18 70 13 81 -4 96 2 60 25 -21 13 -28 52 -9 52 6 0 17
-7 26 -15z m3586 -1055 c4 -17 14 -30 27 -33 18 -5 20 -9 11 -25 -6 -11 -7
-22 -2 -24 5 -2 5 -13 0 -26 -7 -20 -12 -21 -29 -12 -16 9 -19 15 -10 25 8 10
6 17 -10 28 -13 9 -18 20 -14 31 3 9 3 16 -1 16 -11 0 -30 -24 -30 -40 0 -9
-11 -16 -27 -18 -33 -4 -37 12 -8 30 11 7 20 18 20 25 0 6 10 14 23 16 19 4
19 4 -5 6 -15 0 -30 6 -34 12 -5 8 -8 8 -14 0 -8 -15 -40 -3 -40 14 0 7 16 16
36 19 19 4 38 14 41 22 8 22 59 -29 66 -66z m368 -162 l224 -3 0 -110 0 -110
-172 -3 -173 -2 0 -335 0 -335 -190 0 -190 0 0 335 0 335 -175 0 -175 0 0 115
0 115 138 0 c75 1 210 0 300 0 117 -1 162 2 162 11 0 8 4 9 13 0 9 -7 93 -12
238 -13z m-1303 -450 l2 -448 -188 0 -189 0 -7 108 c-4 59 -6 112 -5 117 1 6
4 160 6 343 l4 332 187 -2 187 -3 3 -447z m2050 265 l2 -183 235 0 235 0 2
183 3 182 175 2 c107 1 179 -2 187 -9 9 -7 12 -113 13 -449 l0 -439 -190 0
-190 0 0 180 0 180 -235 0 -235 0 0 -180 0 -180 -190 0 -190 0 0 450 0 450
188 -2 187 -3 3 -182z m2077 72 l0 -110 -328 -3 -328 -2 3 -68 3 -67 275 -5
275 -5 0 -80 0 -80 -278 -3 -278 -2 3 -68 3 -67 140 -2 c77 -1 236 -2 353 -2
l212 -1 0 -110 0 -110 -272 0 c-150 0 -354 0 -453 -1 -99 -1 -222 -1 -274 0
l-94 1 6 293 c4 160 7 363 7 450 l0 157 513 -2 512 -3 0 -110z m946 106 c224
-15 344 -53 416 -135 59 -67 80 -181 51 -277 -15 -50 -69 -114 -119 -140 -21
-10 -39 -21 -39 -23 0 -2 21 -16 46 -31 53 -31 76 -74 94 -173 6 -35 15 -75
20 -88 l10 -24 -183 2 -182 3 -27 84 c-48 148 -76 164 -289 168 l-156 3 -7
-46 c-3 -25 -3 -63 0 -85 4 -21 3 -59 0 -84 l-7 -45 -190 0 -189 0 0 435 c0
239 3 441 6 449 5 13 52 15 302 15 164 1 363 -3 443 -8z m1659 -106 l0 -115
-325 0 -325 0 0 -71 0 -71 218 2 c119 2 243 2 275 1 l57 -1 0 -85 0 -85 -275
0 -276 0 3 -67 3 -68 345 -3 c189 -2 346 -4 347 -6 5 -5 6 -206 1 -211 -4 -4
-372 -6 -920 -5 l-158 0 0 450 0 450 515 0 515 0 0 -115z m444 106 c3 -5 6
-65 7 -134 0 -97 -7 -173 -32 -331 l-33 -206 -87 0 -87 0 -7 48 c-5 26 -10 54
-12 62 -2 8 -8 49 -13 90 -6 41 -14 95 -20 120 -10 51 -13 343 -3 353 10 10
281 8 287 -2z m1164 -443 l2 -448 -190 0 -190 0 0 450 0 449 188 -2 187 -2 3
-447z m-1218 -363 l0 -85 -90 0 -90 0 0 85 0 85 90 0 90 0 0 -85z m-4627 -989
c7 -8 36 -49 63 -92 109 -173 278 -437 367 -574 53 -80 105 -162 117 -182 l22
-38 -190 0 -191 0 -44 73 -43 72 -282 1 -282 1 -42 -73 -42 -74 -188 0 c-205
0 -212 2 -165 53 12 14 92 136 177 272 85 135 190 300 233 366 43 66 83 132
89 147 27 62 25 62 214 62 134 0 176 -3 187 -14z m1283 -238 c87 -138 177
-280 199 -316 22 -35 43 -65 47 -66 4 0 97 141 207 314 l199 315 223 0 224 0
3 -447 2 -448 -190 0 -190 0 -2 282 -3 283 -165 -282 -165 -283 -141 0 -141 0
-164 281 -164 281 -3 -281 -2 -281 -190 0 -190 0 0 443 c0 244 3 447 7 450 3
4 104 7 223 7 l216 0 160 -252z m-4408 -1543 c135 -32 220 -90 270 -183 57
-106 63 -102 -159 -102 -189 0 -191 0 -221 25 -72 61 -222 52 -258 -15 -16
-30 13 -39 162 -50 395 -31 535 -104 515 -271 -13 -105 -94 -206 -208 -258
-92 -42 -172 -54 -344 -54 -211 1 -331 34 -425 119 -37 34 -100 141 -100 171
0 10 39 13 196 13 l196 0 33 -29 c39 -34 106 -47 164 -31 50 13 97 51 89 72
-8 20 -41 26 -212 39 -271 20 -392 60 -442 145 -85 145 42 346 256 404 116 32
364 34 488 5z m2545 -1 c110 -25 209 -74 270 -136 46 -47 97 -129 97 -158 0
-6 -70 -10 -195 -10 l-195 0 -45 35 c-25 19 -62 38 -83 42 -55 12 -152 9 -196
-6 -124 -43 -180 -195 -117 -319 42 -81 106 -114 226 -116 104 -1 162 9 205
37 l35 22 -70 5 -70 5 0 75 0 75 253 3 252 2 0 -225 0 -225 -75 0 -75 0 -16
40 c-9 22 -18 40 -21 40 -3 0 -33 -13 -68 -30 -192 -91 -547 -88 -742 7 -108
53 -186 144 -218 257 -24 82 -17 239 14 318 44 113 153 204 296 247 140 42
385 49 538 15z m-1753 -221 c0 -262 8 -331 45 -379 90 -118 302 -85 343 53 8
27 12 125 12 297 l0 256 191 0 191 0 -4 -282 c-4 -235 -8 -292 -22 -338 -49
-150 -135 -227 -304 -271 -96 -26 -348 -31 -457 -10 -151 29 -269 109 -319
216 -40 84 -46 142 -46 420 l0 265 185 0 185 0 0 -227z m3195 130 c68 -103 74
-112 200 -313 43 -68 112 -176 153 -240 88 -134 152 -238 152 -245 0 -3 -84
-5 -187 -5 l-188 0 -42 74 -43 75 -283 1 -283 0 -43 -75 -43 -75 -184 0 c-117
0 -184 4 -184 10 0 6 127 208 281 450 l282 440 173 0 173 0 66 -97z m1175 -30
c58 -69 128 -151 155 -183 28 -31 82 -94 120 -139 39 -46 83 -97 98 -114 l28
-32 -6 114 c-3 63 -8 125 -11 137 -3 12 -1 25 5 28 7 5 11 62 11 162 l0 154
190 0 189 0 3 -77 c2 -43 1 -244 -2 -448 l-5 -370 -225 0 -224 0 -251 300
-250 300 -3 -150 c-1 -82 0 -156 4 -165 6 -16 7 -61 5 -203 l-1 -87 -192 2
-193 3 -3 435 c-1 239 0 441 3 448 3 9 58 12 227 12 l223 0 105 -127z m1990
17 l0 -110 -172 -2 -173 -3 -2 -40 c-1 -22 -2 -174 -2 -338 l-1 -297 -187 2
-188 3 2 35 c1 19 -1 171 -4 338 l-5 303 -172 -3 -171 -3 -3 113 -3 112 541 0
540 0 0 -110z m520 -70 l0 -180 235 0 235 0 0 180 0 180 190 0 190 0 0 -450 0
-450 -187 2 -188 3 -3 177 -2 177 -193 3 c-105 2 -211 1 -234 -1 l-43 -3 0
-179 0 -179 -187 2 -188 3 -3 448 -2 447 190 0 190 0 0 -180z"/>
<path d="M14340 7365 l0 -95 163 0 c240 1 299 19 305 92 6 73 -73 98 -314 98
l-154 0 0 -95z"/>
<path d="M11944 5618 c-14 -21 -26 -41 -86 -145 l-58 -98 147 -3 c80 -1 148 0
151 2 4 5 -121 231 -138 249 -4 5 -12 3 -16 -5z"/>
<path d="M12736 3818 c-38 -62 -126 -221 -126 -229 0 -5 66 -9 151 -9 83 0
149 4 147 8 -13 33 -143 252 -150 252 -4 0 -14 -10 -22 -22z"/>
<path d="M6969 9593 c-22 -52 -14 -72 22 -53 19 11 24 10 36 -6 7 -10 13 -24
13 -31 0 -7 5 -13 10 -13 6 0 10 6 10 13 0 21 37 50 54 44 9 -4 18 -2 21 3 3
5 24 14 45 20 22 6 40 15 40 19 0 14 -40 20 -67 10 -29 -11 -71 -2 -96 19 -9
8 -29 17 -43 18 -21 2 -28 -4 -45 -43z"/>
</g>
</svg>
